<?xml version="1.0" standalone="no"?>
<!DOCTYPE svg PUBLIC "-//W3C//DTD SVG 1.1//EN" "http://www.w3.org/Graphics/SVG/1.1/DTD/svg11.dtd" >
<svg xmlns="http://www.w3.org/2000/svg">
<metadata></metadata>
<defs>
<font id="realisedregular" horiz-adv-x="879" >
<font-face units-per-em="2048" ascent="1638" descent="-410" />
<missing-glyph horiz-adv-x="665" />
<glyph horiz-adv-x="2048" />
<glyph horiz-adv-x="2048" />
<glyph unicode="&#xd;" horiz-adv-x="2048" />
<glyph unicode=" "  horiz-adv-x="665" />
<glyph unicode="&#x09;" horiz-adv-x="665" />
<glyph unicode="&#xa0;" horiz-adv-x="665" />
<glyph unicode="!" horiz-adv-x="396" d="M0 1603h356l-38 -862l-3 1q-94 0 -165 -110q-64 -99 -98 -235l1 1zM26 -3v326h304v-326h-304z" />
<glyph unicode="&#x22;" horiz-adv-x="616" d="M0 1354v248h245v-248l-37 -273h-166zM331 1354v248h245v-248l-37 -273h-166z" />
<glyph unicode="#" horiz-adv-x="696" d="M0 889v128h114l33 205h-147v129h167l46 259h102l-45 -259h192l44 259h103l-45 -259h92v-129h-111l-35 -205h146v-128h-165l-45 -257h-103l46 257h-195l-42 -257h-104l44 257h-92zM216 1018h193l33 204h-192z" />
<glyph unicode="$" horiz-adv-x="850" d="M0 1218q0 363 328 411v129h149v-129q298 -48 298 -406q0 -25 -3 -76h-323v67q0 53 -2.5 87t-9 53t-18 26t-29.5 7q-60 0 -60 -114q0 -100 59 -165q-1 0 18.5 -15.5t49 -39t65.5 -52t69 -55t58 -47t33 -28.5q64 -66 96 -158.5t32 -228.5q0 -433 -333 -491v-152h-149v157 q-323 41 -323 503v79h323v-99q0 -139 -1 -139v1q9 -104 59 -104q65 0 65 109q0 139 -12 181q-21 73 -107 141q-69 54 -112 89t-60 52q-79 78 -119.5 177.5t-40.5 229.5z" />
<glyph unicode="%" horiz-adv-x="1118" d="M0 1052v291q0 64 4.5 107.5t15.5 74t29.5 51t45.5 38.5q55 36 139 36q66 0 112.5 -16.5t75.5 -53.5t42 -95t13 -142v-278q0 -60 -4 -101t-14 -69.5t-27 -48.5t-42 -39q-55 -41 -143 -41q-68 0 -115 16.5t-76.5 51t-42.5 88.5t-13 130zM204 945q4 -37 35 -37q33 0 33 91 v415q0 32 -1 51t-4 28.5t-10 12t-19 2.5q-11 0 -17.5 -3.5t-10.5 -13.5t-5 -28.5t-1 -48.5v-408v-61zM224 -31l508 1681h122l-507 -1681h-123zM601 269v292q0 63 4.5 106t15.5 73.5t29.5 52t45.5 39.5q54 36 138 36q67 0 113.5 -16.5t75.5 -53.5t42 -95t13 -142v-279 q0 -60 -4 -101t-14 -69.5t-27 -48.5t-42 -39q-55 -41 -143 -41q-68 0 -115.5 16.5t-76.5 51t-42 89t-13 129.5zM806 163q4 -37 34 -37q27 0 33 35v56v414v59q-5 36 -34 36q-11 0 -17.5 -3.5t-10 -13.5t-4.5 -28.5t-1 -49.5v-408v-60z" />
<glyph unicode="&#x26;" horiz-adv-x="955" d="M0 365q0 234 179 329q-128 116 -128 311q0 85 24 154.5t68 118.5t107.5 75.5t143.5 26.5q71 0 128.5 -26.5t97.5 -74t61.5 -113t21.5 -144.5q0 -163 -101 -291l115 -258l176 142v-273l-91 -72l113 -270h-298l-39 90q-151 -124 -285 -124q-68 0 -122 30t-92 83t-58.5 126 t-20.5 160zM302 344q0 -114 75 -114q40 0 90 43l-105 218q-60 -68 -60 -147zM334 1073q0 -95 60 -174q55 88 55 170q0 93 -61 93q-54 0 -54 -89z" />
<glyph unicode="'" horiz-adv-x="285" d="M0 1354v248h245v-248l-37 -273h-166z" />
<glyph unicode="(" horiz-adv-x="457" d="M0 396v810q0 168 6 204q9 55 29.5 91.5t57 59t91 32t131.5 9.5h102v-211q-34 0 -54.5 -1.5t-32.5 -5.5t-18 -12t-10 -20q-9 -26 -9 -145v-812q0 -70 3.5 -107.5t16 -54.5t37.5 -19.5t67 -2.5v-211h-102q-250 0 -294 128q-21 63 -21 268z" />
<glyph unicode=")" horiz-adv-x="457" d="M0 0v211q34 0 55 1.5t33.5 6.5t18.5 14t11 24q7 25 7 138v812q0 74 -3 112t-15 54t-37 17t-70 1v211h102q252 0 294 -128q21 -65 21 -268v-810q0 -169 -6 -203q-9 -56 -29.5 -93t-57 -59t-91 -31.5t-131.5 -9.5h-102z" />
<glyph unicode="*" horiz-adv-x="452" d="M0 1391l34 118l123 -51v161h101v-161l118 51l36 -118l-118 -62l74 -132l-80 -74l-81 133l-79 -133l-84 74l75 137z" />
<glyph unicode="+" horiz-adv-x="811" d="M0 686v244h287v360h195v-360h289v-244h-289v-358h-195v358h-287z" />
<glyph unicode="," horiz-adv-x="257" d="M0 0v317h217v-145q0 -219 -96 -311q-54 -51 -121 -68v116q48 34 54 91h-54z" />
<glyph unicode="-" horiz-adv-x="810" d="M0 695v244h770v-244h-770z" />
<glyph unicode="." horiz-adv-x="284" d="M0 0v330h244v-330h-244z" />
<glyph unicode="/" horiz-adv-x="669" d="M0 -31l386 1681h243l-384 -1681h-245z" />
<glyph unicode="0" horiz-adv-x="802" d="M0 506v565q0 193 18 279q15 73 46.5 129.5t77.5 94t105 57t128 19.5q162 0 260.5 -90t119.5 -273q3 -30 5 -84t2 -132v-540q0 -156 -9 -220q-23 -166 -114 -254t-240 -88q-92 0 -160 24t-115 67.5t-74.5 104t-38.5 134.5q-5 34 -8 85.5t-3 121.5zM323 300q7 -82 58 -82 q46 0 57 77q1 5 1 32.5v77.5v802v116q-9 78 -57 78q-47 0 -58 -80q-1 -6 -1 -34.5v-79.5v-790v-117z" />
<glyph unicode="1" horiz-adv-x="584" d="M0 1155v188q234 63 355 259h189v-1605q-148 0 -257 -169q-25 -38 -42.5 -80t-22.5 -90v1209v111.5t-4 78.5t-14.5 51t-32 29.5t-55.5 14t-85 3.5h-31z" />
<glyph unicode="2" horiz-adv-x="780" d="M0 0v231l248 505q187 402 187 534q0 131 -73 131q-72 0 -72 -179v-154h-290v59q0 147 23 247t67.5 161.5t109.5 88t150 26.5q91 0 163.5 -29.5t122.5 -84.5t77 -133t27 -175q0 -198 -139 -495q-11 -24 -72 -137.5t-172 -319.5h354v-276h-711z" />
<glyph unicode="3" horiz-adv-x="802" d="M0 515v128h323v-263v-69t1 -29q9 -64 54 -64q50 0 61 95v241q0 69 -8 110t-29.5 62.5t-59 28t-96.5 7.5v235q48 0 74 0.5t31 1.5q27 4 44.5 15t27 31t13 51t3.5 76v90q0 139 -57 139q-17 0 -28.5 -6.5t-18.5 -23t-9.5 -45.5t-2.5 -75v-133h-323v138q0 110 19 185.5 t61 122t109.5 67t164.5 20.5q105 0 180 -24.5t123 -76t70.5 -132.5t22.5 -194q0 -67 -6.5 -113.5t-21.5 -81t-40.5 -60.5t-64.5 -52q106 -45 134 -187q11 -58 11 -245q0 -101 -8.5 -176t-27.5 -129.5t-48.5 -91.5t-71.5 -64q-88 -56 -222 -56q-290 0 -356 223 q-28 91 -28 324z" />
<glyph unicode="4" horiz-adv-x="837" d="M0 285v275l278 1042h427v-1042h92v-275h-92l-1 -626q-25 81 -59.5 144t-76 106t-89 65.5t-97.5 22.5l2 288h-384zM242 560h142v523z" />
<glyph unicode="5" horiz-adv-x="812" d="M0 519v88h322v-101v-164q12 -124 70 -124q24 0 38.5 14.5t16.5 44.5q1 18 1 65.5v125.5v320q0 157 -65 157q-18 0 -29.5 -6t-18.5 -22t-10 -44t-3 -71h-305v801h365q49 1 96.5 23.5t89.5 65t77.5 105t61.5 143.5v-596h-398v-262q75 111 193 111q171 0 232 -151 q38 -97 38 -300v-230q0 -75 -2 -126.5t-6 -80.5q-17 -166 -108 -250.5t-263 -84.5q-274 0 -353 216q-40 109 -40 333z" />
<glyph unicode="6" horiz-adv-x="817" d="M0 407q1 0 1 275v224q0 292 -1 292v-1q6 120 34 206t77 141t119.5 81t160.5 26q202 0 294 -114.5t92 -347.5h-323v107q1 0 1 -8q-1 34 -6 56t-14 34.5t-21.5 17.5t-27.5 5q-23 0 -35.5 -8.5t-18.5 -29.5t-7 -57.5t-1 -93.5v-258q49 130 191 130q43 0 82.5 -15.5t72 -43 t55.5 -64.5t33 -80q19 -83 19 -228v-129q0 -81 -1.5 -133.5t-3.5 -75.5q-17 -174 -113 -260t-256 -86q-98 0 -171 26t-122.5 80t-76.5 137t-33 196v-1zM324 391q0 -51 3 -84t10.5 -53t20 -28t30.5 -8q66 0 66 163v303q0 150 -65 150t-65 -150v-293z" />
<glyph unicode="7" horiz-adv-x="657" d="M0 1312v627q25 -78 60 -139t76.5 -104t88 -66.5t95.5 -26.5h297v-352l-207 -1250h-320l229 1311h-319z" />
<glyph unicode="8" horiz-adv-x="810" d="M0 490q0 85 3.5 143t10.5 92q26 132 117 193q-120 72 -120 314q0 418 371 418q99 0 170 -25t117 -77t67.5 -133t21.5 -193q0 -68 -6 -113.5t-21 -78.5t-41.5 -58.5t-67.5 -53.5q108 -55 136 -196q12 -60 12 -252q0 -168 -18 -244q-29 -122 -119.5 -189.5t-247.5 -67.5 q-136 0 -221.5 51.5t-126.5 156.5q-37 93 -37 313zM323 383q0 -49 3.5 -81t11 -50.5t20 -26t30.5 -7.5t29 6.5t17.5 25t9 51.5t2.5 85v207q0 154 -63 154q-60 0 -60 -154v-210zM330 1143q0 -129 56 -129q16 0 26.5 5.5t16.5 21.5t8.5 43t2.5 71v111q0 41 -2.5 67.5t-9 41.5 t-17.5 20.5t-27 5.5q-54 0 -54 -135v-123z" />
<glyph unicode="9" horiz-adv-x="816" d="M0 430h323q0 -79 4.5 -122t13 -63t21.5 -23.5t30 -3.5q23 0 35.5 8.5t18 29.5t6.5 57.5t1 93.5v258q-48 -130 -191 -130q-44 0 -83.5 15.5t-71.5 42.5t-55 64.5t-33 81.5q-10 40 -14.5 96.5t-4.5 130.5v129q0 79 1 131t4 78q19 178 111.5 262t257.5 84q195 0 293 -105 t110 -333q-1 0 -1 -274v-225q0 -293 1 -293v2q-5 -121 -33 -207t-77.5 -141t-120 -80.5t-160.5 -25.5q-201 0 -293.5 114.5t-92.5 347.5zM323 935q0 -150 65 -150t65 150v293q0 51 -3 84t-10.5 53t-20 28t-30.5 8q-66 0 -66 -163v-303z" />
<glyph unicode=":" horiz-adv-x="284" d="M0 0v330h244v-330h-244zM0 725v329h244v-329h-244z" />
<glyph unicode=";" horiz-adv-x="284" d="M0 725v329h244v-329h-244zM14 0v317h216v-145q0 -219 -96 -311q-53 -51 -120 -68v116q48 34 54 91h-54z" />
<glyph unicode="&#x3c;" horiz-adv-x="810" d="M0 725v203l770 402v-264l-476 -239l476 -238v-265z" />
<glyph unicode="=" horiz-adv-x="810" d="M0 496v244h770v-244h-770zM0 878v244h770v-244h-770z" />
<glyph unicode="&#x3e;" horiz-adv-x="810" d="M0 324v264l475 239l-475 238v265l770 -400v-204z" />
<glyph unicode="?" horiz-adv-x="795" d="M31 1121v63q0 190 29 269q16 42 48.5 76t77 57.5t99 36.5t112.5 13q119 0 200 -47q44 -26 73.5 -58t48.5 -78.5t27 -110.5t8 -153q-16 -242 -132 -331t-121 -219q-230 -33 -297 -296v294q0 204 113.5 298.5t121.5 181t8 127.5q0 60 -16 92t-45 32q-11 0 -20.5 -3t-16 -16 t-10 -38.5t-3.5 -71.5v-118h-305zM205 -3v300h301v-300h-301z" />
<glyph unicode="@" horiz-adv-x="1254" d="M-11 749q0 337 141 576q175 293 498 293q112 0 214 -44.5t180 -133.5t124 -221.5t46 -307.5q0 -209 -93 -405q-124 -247 -324 -247q-95 0 -131 82q-43 -45 -83 -64t-83 -19q-65 0 -116.5 32t-87 89.5t-54.5 136.5t-19 173q0 95 19.5 192t54.5 187q49 125 120 189t161 64 q91 0 154 -80l6 51h190q-105 129 -275 129q-120 0 -209.5 -54t-154.5 -163q-110 -185 -110 -446q0 -137 32.5 -252.5t93 -199.5t146 -131.5t192.5 -47.5q199 0 369 176h222q-60 -97 -126.5 -167t-139.5 -114h1q-76 -48 -156.5 -70.5t-168.5 -22.5q-143 0 -259.5 63.5 t-199.5 174.5t-128.5 260.5t-45.5 321.5zM415 635q0 -36 6 -69t17 -58.5t26 -40.5t34 -15q40 0 72.5 57t55.5 166q15 72 23 142.5t8 137.5q0 31 -5 60.5t-15 52t-25 36t-34 13.5q-35 0 -65 -40.5t-51.5 -107.5t-34 -154t-12.5 -180zM820 474q91 0 165 198v-1q20 51 29 110.5 t9 129.5q0 210 -93 351v-1l-9 11l-97 -760q-3 -25 -3 -31.5t-1 -6.5z" />
<glyph unicode="A" d="M30 0l171 1603h486l168 -1411l57 -462q-29 59 -64.5 108.5t-76.5 85.5t-88 57.5t-99 24.5q-12 0 -23 -1t-21 -3l-4 -2l-18 284h-121l-20 -284h-347zM394 570h114q-12 142 -24.5 309t-26.5 370q-26 -233 -63 -679z" />
<glyph unicode="B" horiz-adv-x="824" d="M0 0v1600h336q85 0 145.5 -8t103 -26t72 -48t53.5 -74q50 -94 50 -305q0 -62 -8.5 -106t-28.5 -74.5t-54 -50.5t-85 -34q55 -15 93 -39.5t62 -64.5t34.5 -98.5t10.5 -141.5v-150q0 -301 -125 -351q-73 -29 -269 -29h-390zM337 277q76 3 97 39q13 22 13 112v151 q0 94 -11 114q-18 34 -99 37v-453zM337 982q25 2 43.5 4t31.5 9.5t21.5 22.5t12.5 42q1 1 1 109q0 52 -4.5 82t-16.5 45.5t-33.5 20.5t-55.5 6v-341z" />
<glyph unicode="C" horiz-adv-x="820" d="M0 563v464q0 103 4 175t12 114q30 157 126.5 232.5t251.5 75.5q69 0 128.5 -21.5t106 -57.5t78 -82.5t45.5 -95.5q14 -52 21 -138.5t7 -211.5v15h-330v122v83.5t-1 34.5q-11 84 -59 84q-18 0 -30 -6.5t-18.5 -26.5t-9 -57t-2.5 -97v-736q0 -52 0.5 -81t1.5 -35 q10 -78 61 -78q28 0 38 15.5t12 60.5q6 102 6 191v22q64 0 118 20.5t96.5 58.5t72 93.5t44.5 124.5v-319v-194q-12 -52 -26 -93.5t-33.5 -75.5t-46 -61t-63.5 -50q-98 -61 -227 -61q-83 0 -149 25.5t-113.5 70.5t-76 106t-35.5 133q-5 54 -7.5 117.5t-2.5 139.5z" />
<glyph unicode="D" horiz-adv-x="820" d="M0 0v1601h252q94 0 155 -2.5t93 -7.5q72 -12 122.5 -36.5t83.5 -64.5t50 -96.5t22 -131.5q1 -13 1.5 -70t0.5 -162v-549q0 -99 -4 -173t-17 -127.5t-36.5 -88.5t-63 -55.5t-97 -28.5t-137.5 -8h-425zM337 277q87 0 104 80q1 6 1.5 44.5t0.5 110.5v611q0 70 -4 110.5 t-15 60.5t-32 25t-55 5v-1047z" />
<glyph unicode="E" horiz-adv-x="755" d="M0 1v1602h715v-322h-378v-293h348q-245 -131 -245 -307l-103 1v-356h378v-325h-715z" />
<glyph unicode="F" horiz-adv-x="758" d="M0 0v1603h718v-324h-381v-290h350q-245 -135 -245 -308l-105 1v-682h-337z" />
<glyph unicode="G" horiz-adv-x="817" d="M0 558v462q0 118 4.5 201.5t14.5 132.5q12 61 44.5 112.5t80.5 88.5t108 57.5t126 20.5t126 -18.5t108.5 -52t83.5 -80.5t51 -104q30 -110 30 -302v-68h-335v265q-7 88 -55 88q-43 0 -52 -77q-1 -1 -1 -107v-756q0 -54 2.5 -88.5t8.5 -54t17 -26.5t28 -7q18 0 30.5 8.5 t19.5 29.5t10 57.5t3 93.5v175h-68v245h392v-1192q-26 287 -211 344l-31 116q-34 -76 -85 -112.5t-123 -36.5q-51 0 -98.5 18.5t-87 52.5t-69.5 80.5t-46 103.5q-8 27 -13 59t-8 72t-4 89t-1 110z" />
<glyph unicode="H" horiz-adv-x="819" d="M0 1606h339v-582h101v582h339v-1607h-339v662h-101l-1 -1010q-25 78 -60.5 141.5t-78.5 109t-93 70t-105 24.5z" />
<glyph unicode="I" horiz-adv-x="377" d="M0 0v1939q25 -79 60.5 -141.5t78.5 -106.5t93 -67.5t105 -23.5v-1600h-337z" />
<glyph unicode="J" horiz-adv-x="507" d="M0 0v284q31 -3 45 -3q72 0 81 77q3 27 3 124v1119q103 0 192 86.5t146 258.5v-1407q0 -122 -1 -200t-3 -113q-3 -37 -13 -71t-28.5 -62t-45 -48.5t-61.5 -30.5q-48 -14 -145 -14h-170z" />
<glyph unicode="K" horiz-adv-x="864" d="M0 0l2 1946q23 -77 56.5 -140t76.5 -108t94 -70t109 -25v-610l150 610h318l-195 -712l213 -891h-349l-137 696v-696h-338z" />
<glyph unicode="L" horiz-adv-x="795" d="M0 -1v1603q105 0 191 86.5t143 252.5v-1620h421v-322q-51 0 -100 -22t-92 -64.5t-79 -105t-62 -143.5v335h-422z" />
<glyph unicode="M" horiz-adv-x="1080" d="M0 -1v1602h436q5 -37 88 -575l78 575h438v-1904q-32 67 -68.5 122.5t-74.5 95.5t-76.5 62.5t-74.5 22.5v884l-119 -885h-208l-124 886v-886h-295z" />
<glyph unicode="N" horiz-adv-x="790" d="M0 -298v1899h281l189 -610v608q43 0 83 22t75.5 62t66 95.5t55.5 123.5v-1901h-294l-175 583v-581q-44 0 -84.5 -23.5t-76.5 -64t-66.5 -95.5t-53.5 -118z" />
<glyph unicode="O" horiz-adv-x="819" d="M0 671v277q0 126 0.5 193t1.5 79q7 112 36.5 193.5t79 135t118 79t154.5 25.5q84 0 152.5 -25.5t118 -78t79.5 -134t37 -193.5q1 -13 1.5 -80.5t0.5 -193.5v-277q0 -126 -0.5 -193t-1.5 -79q-7 -113 -36.5 -195t-79 -135t-118 -78t-153.5 -25t-153.5 25.5t-118.5 78.5 t-79.5 134.5t-36.5 192.5q-1 13 -1.5 80.5t-0.5 193.5zM336 326q8 -86 53 -86t53 95v124v744q0 54 -2 88t-7.5 53.5t-15.5 27t-26 7.5q-17 0 -27.5 -7.5t-16.5 -27t-8 -54t-2 -87.5v-756q0 -121 -1 -121z" />
<glyph unicode="P" horiz-adv-x="770" d="M0 -343v1944h341q90 0 155.5 -13t110.5 -40.5t71 -71.5t38 -106q7 -38 10.5 -94.5t3.5 -131.5v-141q0 -81 -6 -136.5t-20.5 -94t-37.5 -63t-56 -42.5q-71 -38 -180 -38h-92v-627q-102 0 -191.5 -87t-146.5 -258zM338 907h13q3 -1 12 -1q23 0 39 6t25.5 22.5t14 45.5 t4.5 75v133q0 43 -4.5 69t-16.5 40.5t-33 19.5t-54 5v-415z" />
<glyph unicode="Q" horiz-adv-x="820" d="M0 583v501q0 73 2.5 126t7.5 88q24 173 119 264t247 91q92 0 161.5 -28t118 -76.5t77 -114t38.5 -140.5q4 -31 6 -81t2 -120v-526q0 -88 -1.5 -141.5t-3.5 -76.5q-7 -63 -23 -108t-41 -76t-59.5 -50.5t-79.5 -32.5q1 -28 5 -44.5t14 -24.5t27.5 -10.5t45.5 -2.5h117v-196 h-254q-64 0 -102.5 8.5t-58.5 30.5t-26.5 60t-6.5 97q-57 2 -107 21.5t-89.5 53t-67.5 79.5t-41 102q-27 109 -27 327zM336 326q8 -86 53 -86t53 95v124v744q0 54 -2 88t-7.5 53.5t-15.5 27t-26 7.5q-17 0 -27.5 -7.5t-16.5 -27t-8 -54t-2 -87.5v-756q0 -121 -1 -121z" />
<glyph unicode="R" horiz-adv-x="793" d="M0 -335v1936h238q106 0 170.5 -2t87.5 -6q66 -12 114.5 -39.5t80 -78t47 -127.5t15.5 -189q0 -96 -8.5 -157.5t-29.5 -98t-57 -53.5t-91 -24q51 -16 83.5 -37.5t52 -45t28.5 -48.5t14 -47q4 -20 6 -79.5t2 -161.5v-408h-313v519q0 112 -6 133q-16 61 -96 61v-707 q-106 0 -194.5 -86.5t-143.5 -253.5zM338 963q31 0 51 4t31 19t15.5 44t4.5 79v90q0 37 -5 61t-16.5 38t-31 19.5t-49.5 5.5v-360z" />
<glyph unicode="S" horiz-adv-x="803" d="M0 1178q0 88 8.5 153t27.5 112t49 80t74 58q84 48 204 48q60 0 114.5 -13t100 -37t78.5 -58.5t50 -77.5q28 -72 28 -270v-347q-21 60 -52.5 111.5t-71 89.5t-86.5 59.5t-99 21.5v120q0 40 -2 65t-8 39.5t-16 20t-25 5.5q-61 0 -61 -125q0 -41 2.5 -69.5t13.5 -52 t33.5 -46t61.5 -51.5q106 -78 173 -141.5t96 -112.5q70 -118 70 -332q0 -90 -7.5 -152t-25.5 -105.5t-48 -74t-76 -57.5q-92 -55 -214 -55q-64 0 -121.5 16t-104 45.5t-79.5 70.5t-48 92q-29 102 -29 280v77h311v-168q0 -51 3.5 -79.5t11 -42.5t18.5 -17t26 -3q66 0 66 130 q0 135 -39 167q-22 34 -149 137q-50 40 -88.5 73.5t-67 66.5t-48.5 67t-32 75t-17 91.5t-5 115.5z" />
<glyph unicode="T" horiz-adv-x="785" d="M12 1278v324h743v-324h-200v-1276q-51 0 -100.5 -22.5t-93 -65.5t-80.5 -106t-62 -145v1615h-207z" />
<glyph unicode="U" horiz-adv-x="814" d="M0 654v943h338v-1200q0 -54 2 -86.5t7 -50.5t14.5 -23.5t24.5 -5.5t24.5 4t15 22.5t7.5 56t2 104.5v1179q51 0 100 22t93.5 65.5t81.5 107t64 146.5v-1408q0 -96 -1 -157t-7.5 -104.5t-20 -77.5t-37.5 -74q-98 -161 -309 -161q-80 0 -148 22.5t-119.5 65t-83.5 105.5 t-40 144q-4 42 -6 130.5t-2 230.5z" />
<glyph unicode="V" horiz-adv-x="897" d="M0 1600h355q31 -337 53 -618t35 -513q14 257 28 463t27 367l24 301h355l-171 -1600h-512z" />
<glyph unicode="W" horiz-adv-x="1350" d="M0 1600h327l70 -890l93 890h350l74 -890l93 890h327l-149 -1600h-421l-102 617l-93 -617h-419z" />
<glyph unicode="X" horiz-adv-x="831" d="M-10 -1l123 907l-123 696h326q8 -51 16 -106.5t20 -118.5l20 -108l16 -106l72 439h284l-120 -696l239 -1185q-148 247 -312 247q-23 0 -53 -8l-28 134q-25 118 -45.5 240.5t-36.5 257.5q-2 -25 -11 -106t-26 -222l-31 -265h-330z" />
<glyph unicode="Y" horiz-adv-x="817" d="M0 1601h310l80 -637l95 637h309l-246 -1032v-567q-151 0 -245 -172q-41 -74 -65 -171l-1 910z" />
<glyph unicode="Z" horiz-adv-x="715" d="M0 0v231l258 1051h-228v320h585v-320l-247 -962h307v-320q-146 0 -255 -168q-23 -39 -42.5 -78.5t-35.5 -74.5v321h-342z" />
<glyph unicode="[" horiz-adv-x="406" d="M0 0v1603h366v-249h-73v-1105h73v-249h-366z" />
<glyph unicode="\" horiz-adv-x="669" d="M0 1650h242l387 -1681h-244z" />
<glyph unicode="]" horiz-adv-x="406" d="M0 0v249h73v1105h-73v249h366v-1603h-366z" />
<glyph unicode="^" horiz-adv-x="812" d="M0 820l301 799h178l293 -799h-227l-159 489l-157 -489h-229z" />
<glyph unicode="_" horiz-adv-x="964" d="M0 -154h924v-102h-924v102z" />
<glyph unicode="`" horiz-adv-x="466" d="M0 1772h285l141 -271h-163z" />
<glyph unicode="a" horiz-adv-x="900" d="M-9 -269l62 501l164 1371h484l172 -1602h-347l-20 278h-120l-18 -278h-3q-11 2 -23 3t-23 1q-48 0 -94 -19t-88 -55t-79 -86.5t-67 -113.5zM394 565h115q-5 103 -21.5 271t-42.5 407q-26 -419 -51 -678z" />
<glyph unicode="b" horiz-adv-x="827" d="M0 -342v1946h338q87 0 147 -8t102.5 -26t71.5 -48.5t53 -75.5q51 -95 51 -304q0 -62 -8.5 -105t-29 -73.5t-54.5 -50.5t-85 -35q56 -16 94.5 -40t62 -63.5t34 -98t10.5 -143.5v-149q0 -299 -126 -353q-65 -29 -270 -29h-51q-103 0 -193 -87.5t-147 -256.5zM338 279 q36 2 57.5 7.5t33.5 21t16 44.5t4 79v152q0 92 -12 115q-18 33 -99 36v-455zM338 986q5 1 10 1h10h14q64 0 76 78q1 2 1 107q0 59 -6 90t-19 45t-34.5 16t-51.5 3v-340z" />
<glyph unicode="c" horiz-adv-x="838" d="M0 559v475q0 87 1.5 141.5t3.5 79.5q9 96 41 168t82.5 120t118 72.5t147.5 24.5q93 0 164 -28t120 -76t76 -111.5t32 -133.5l12 -198v-327q-32 147 -117 225.5t-221 78.5v23q0 35 -1 74t-3 82l-4 70q-6 46 -50 46q-53 0 -63 -79q-1 -5 -1 -34.5v-83.5v-755 q0 -51 0.5 -78.5t1.5 -34.5q11 -77 59 -77q50 0 61 86q1 6 1 36v85v203h337v17v-92q0 -41 -1 -77t-4 -75t-8.5 -85.5t-14.5 -108.5q-14 -51 -46.5 -99t-79.5 -84.5t-108 -58.5t-133 -22q-304 0 -372 254q-31 114 -31 357z" />
<glyph unicode="d" horiz-adv-x="826" d="M0 -349v1952h254q248 0 333 -28q159 -52 188 -237q5 -37 8 -114t3 -197v-544q0 -226 -16 -293q-14 -59 -38 -95.5t-64.5 -57.5t-99 -29t-140.5 -9l-85 -1q-53 -1 -103.5 -23.5t-94.5 -66t-81 -108t-64 -149.5zM339 277q88 0 105 81q3 13 3 156v607q0 60 -0.5 99t-10 62.5 t-32 32.5t-65.5 9v-1047z" />
<glyph unicode="e" horiz-adv-x="739" d="M0 1v1602h677v-323h-338v-291h322v-307h-322v-357h359l1 1v-325q-53 0 -102 -22.5t-92 -66t-79.5 -106.5t-63.5 -144v339h-362z" />
<glyph unicode="f" horiz-adv-x="614" d="M0 -343v1950h574v-303h-235v-310h209v-309h-209v-684h-2v-5q-106 0 -193.5 -87t-143.5 -252z" />
<glyph unicode="g" horiz-adv-x="816" d="M0 551v477q0 116 5 199t15 135q12 61 44.5 112t80.5 88t107.5 57.5t124.5 20.5q74 0 135.5 -20.5t108.5 -55t78.5 -81t46.5 -97.5q30 -105 30 -301v-69h-334v145q0 67 -1.5 108t-7.5 63.5t-17 29.5t-29 7q-15 0 -25 -4t-16 -22t-9 -55t-3 -102v-770q0 -56 2.5 -90.5 t8.5 -54t17 -26t28 -6.5q18 0 30 8.5t19 30t10 58t3 92.5v191h-67v244h391v-861h-210l-32 114q-40 -83 -91.5 -115.5t-116.5 -32.5q-69 0 -124.5 30t-96 78t-65 108t-30.5 120q-5 45 -7.5 106.5t-2.5 140.5z" />
<glyph unicode="h" horiz-adv-x="819" d="M0 -1v1603h339v-658h101l1 1006q25 -80 60 -144t78.5 -108.5t94 -68.5t104.5 -24l1 -1606h-339v582h-101v-582h-339z" />
<glyph unicode="i" horiz-adv-x="377" d="M0 -333v1936h337v-1597q-106 0 -193.5 -87t-143.5 -252z" />
<glyph unicode="j" horiz-adv-x="507" d="M0 1v285q31 -3 45 -3q29 0 45.5 9t25 31.5t10.5 61t2 98.5v1120h339v-1063q0 -115 -1 -192.5t-3 -120.5q-3 -61 -20 -104t-52 -70t-89.5 -39.5t-131.5 -12.5h-170z" />
<glyph unicode="k" horiz-adv-x="861" d="M0 3l1 1600h335v-612l150 611h316l-193 -712l213 -889h-348l-138 695v-1036q-25 73 -59.5 136t-77.5 109t-93.5 72t-105.5 26z" />
<glyph unicode="l" horiz-adv-x="583" d="M6 0v1602q51 0 100 22t92.5 65t80.5 107.5t64 148.5l1 -1619h205v-326h-543z" />
<glyph unicode="m" horiz-adv-x="1079" d="M0 -302v1904h438l77 -550l88 550h436v-1602h-294v887l-124 -887h-209l-118 894v-893q-35 0 -73 -21t-76 -60t-75 -95.5t-70 -126.5z" />
<glyph unicode="n" horiz-adv-x="792" d="M0 -298v1902h282l188 -555v549h282v-1597h-295l-175 603v-599q-43 0 -83.5 -23.5t-77 -64t-67 -96t-54.5 -119.5z" />
<glyph unicode="o" horiz-adv-x="819" d="M0 654v277q0 128 0.5 194t1.5 78q7 112 36.5 193.5t79 135t118 79t154.5 25.5q84 0 152.5 -25.5t118 -78t79.5 -134t37 -193.5q1 -13 1.5 -79.5t0.5 -194.5v-277q0 -128 -0.5 -194t-1.5 -78q-7 -113 -36.5 -195t-79 -135t-118 -78t-153.5 -25t-153.5 25.5t-118.5 78.5 t-79.5 134.5t-36.5 192.5q-1 13 -1.5 79.5t-0.5 194.5zM336 309q8 -86 53 -86t53 95v124v744q0 54 -2 88t-7.5 53.5t-15.5 27t-26 7.5q-17 0 -27.5 -7.5t-16.5 -27t-8 -54t-2 -87.5v-756q0 -121 -1 -121z" />
<glyph unicode="p" horiz-adv-x="767" d="M0 2v1602h340q131 0 208 -26t116.5 -81t51 -141t11.5 -206v-140q0 -163 -25 -228q-26 -70 -96 -108.5t-179 -38.5h-89v-941q-143 308 -338 308zM338 914h12q1 -1 12 -1q22 0 37.5 4.5t25.5 20t14.5 44.5t4.5 79v133q0 43 -4.5 69t-16.5 40.5t-32.5 19t-52.5 4.5v-413z " />
<glyph unicode="q" horiz-adv-x="841" d="M0 567v511q0 93 3.5 156t12.5 109t25 81.5t40 74.5q50 79 125.5 118.5t175.5 39.5q60 0 113 -14t97.5 -38t77.5 -55.5t52 -65.5q71 -125 71 -397v-535q0 -91 -1.5 -145t-3.5 -77q-7 -63 -23.5 -108.5t-42 -77t-61 -52t-80.5 -33.5q1 -29 4.5 -45.5t13.5 -25t28 -11 t48 -2.5l119 -1h2q2 -51 49.5 -104t135.5 -95h-447q-62 0 -100 8.5t-59.5 29.5t-29 56.5t-7.5 89.5v16q-57 1 -107.5 21t-91.5 54.5t-70 81.5t-42 102q-27 112 -27 333zM342 429q0 -73 2 -115t8 -63t16 -26.5t27 -5.5q35 0 46 38q9 34 9 185v757v73.5t-1 30.5q-9 75 -51 75 q-17 0 -28 -8t-17 -28t-8.5 -54.5t-2.5 -88.5v-770z" />
<glyph unicode="r" horiz-adv-x="793" d="M0 0v1604h238q232 0 324 -24q191 -50 191 -418q0 -95 -8.5 -156t-30 -98.5t-57.5 -54.5t-91 -23q152 -50 178 -179q9 -44 9 -239v-674q-20 61 -49.5 109.5t-69.5 83t-88.5 53t-105.5 18.5l-1 520q0 114 -5 132q-16 61 -96 61v-715h-338zM338 966q72 0 90 38q11 24 11 109 v88q0 39 -5 63t-17 38t-31.5 19t-47.5 5v-360z" />
<glyph unicode="s" horiz-adv-x="795" d="M0 1189q0 89 8 153t27 110.5t49 78.5t74 58q82 47 201 47q59 0 113.5 -13t99.5 -36.5t78 -57.5t49 -76q29 -79 29 -269v-63h-307v118q0 46 -3.5 71.5t-10 38.5t-16 16t-21.5 3q-29 0 -45 -32t-16 -92q0 -41 3 -69.5t14 -51.5t33.5 -45.5t60.5 -50.5q219 -164 277 -269 q29 -54 43.5 -137.5t14.5 -202.5q0 -90 -7 -151t-24.5 -104t-47.5 -73.5t-76 -57.5q-92 -54 -211 -54q-66 0 -123 17t-103 47t-78 71t-47 89q-28 90 -28 275v105h308v-194q0 -43 2.5 -70.5t9 -43t18 -21t28.5 -5.5q66 0 66 128q0 71 -8.5 116t-24.5 68q-16 22 -38.5 43 t-59 52t-89.5 78t-130 120q-42 48 -67 129t-25 207z" />
<glyph unicode="t" horiz-adv-x="783" d="M0 1278v324h743v-324h-208v-1616q-24 76 -59 138.5t-78.5 106.5t-93.5 68.5t-104 24.5v1278h-200z" />
<glyph unicode="u" horiz-adv-x="811" d="M0 537v1405q25 -77 59.5 -139.5t77 -106.5t92.5 -67.5t107 -23.5v-1179q0 -59 1.5 -95t7 -56t15.5 -27t27 -7q13 0 22 5t14.5 22.5t8 50t2.5 86.5v1198h336v-943q0 -267 1 -267v1q-6 -102 -32 -181.5t-75 -134t-121 -82.5t-170 -28q-75 0 -137.5 22.5t-109 63.5 t-76.5 98.5t-40 126.5q-5 38 -7.5 101.5t-2.5 156.5z" />
<glyph unicode="v" horiz-adv-x="927" d="M-31 1903q35 -64 77 -119t87.5 -95t93.5 -62.5t95 -22.5h17q16 0 27 3l78 -987q1 -25 1.5 -51t2.5 -54q13 170 27 370t33 435l23 284h356l-172 -1604h-512z" />
<glyph unicode="w" horiz-adv-x="1370" d="M-24 1901q27 -68 62.5 -123t76.5 -93.5t86 -59.5t92 -21q8 0 16 0.5t16 1.5l71 -913l90 909h347l78 -910l93 910h326l-149 -1598h-419l-101 625l-98 -625h-413z" />
<glyph unicode="x" horiz-adv-x="874" d="M-28 1871q40 -60 84 -109t90.5 -83.5t94.5 -53.5t96 -19h9l35 -227q7 -37 15.5 -91.5t19.5 -128.5l73 445h285l-120 -694l180 -908h-315q-30 131 -55.5 278.5t-47.5 315.5q-4 -54 -36 -328l-31 -266h-331l124 908z" />
<glyph unicode="y" horiz-adv-x="803" d="M-14 1604h310l81 -621l200 1071q-1 -10 -1 -20v-19q0 -80 14 -147t40 -119.5t64.5 -89t87.5 -54.5l-1 -1h1l-246 -1017v-587h-313v587z" />
<glyph unicode="z" horiz-adv-x="689" d="M0 2v237l262 1037h-232v327h596v-327l-253 -947l84 1q0 -53 20 -102.5t57 -91.5t87.5 -76.5t112.5 -57.5h-734z" />
<glyph unicode="{" horiz-adv-x="587" d="M0 538v240q120 2 157 126q18 61 18 224q0 78 1 127.5t3 71.5q7 79 28 134.5t59.5 90.5t97 51t141.5 16h42v-239q-54 0 -86 -5.5t-49 -21.5t-22 -45t-6 -75l-4 -228q-3 -62 -10.5 -111t-23.5 -90t-43 -76.5t-69 -69.5q37 -28 62.5 -58.5t42 -70t25 -92t11.5 -124.5 l12 -291q4 -24 13 -40.5t26.5 -26.5t46.5 -14t73 -4v-240h-41q-240 0 -298 156q-32 85 -32 268v131.5t-1 56.5q-9 113 -53 178q-32 47 -121 51z" />
<glyph unicode="|" horiz-adv-x="214" d="M0 -265v1884h174v-1884h-174z" />
<glyph unicode="}" horiz-adv-x="587" d="M0 1380v239h42q240 0 299 -156q31 -81 31 -268q0 -85 0.5 -131.5t1.5 -57.5q4 -47 12.5 -87.5t27.5 -71t51 -48.5t82 -21v-240q-120 -1 -156 -126q-19 -63 -19 -223t-3 -200q-6 -80 -27.5 -136t-60.5 -90.5t-97.5 -50t-140.5 -15.5h-42v240q53 0 84.5 5.5t49 21.5t23 45 t6.5 75l4 236q4 63 13.5 113.5t26.5 91.5t42.5 73.5t63.5 59.5q-114 92 -133 228q-2 12 -3 44t-2.5 74.5t-3 90t-3.5 91.5t-5.5 79.5t-7.5 52.5q-17 62 -156 62z" />
<glyph unicode="~" horiz-adv-x="809" d="M0 623v277q119 128 231 128q70 0 186 -70q94 -57 135 -57q71 0 217 161v-275q-128 -131 -227 -131q-69 0 -205 82q-79 47 -114 47q-87 0 -223 -162z" />
<glyph unicode="&#xa8;" horiz-adv-x="599" d="M0 1501v260h209v-260h-209zM350 1501v260h209v-260h-209z" />
<glyph unicode="&#xa9;" horiz-adv-x="1712" d="M0 666v278h57v55h54v56h57v-56h55v56h56v-56h55v-55h-55v-55h57v55h55v-57h-55v-53h53h41h14v55h56h14h41v55h57v-57h52v57h55v55h55v56h57v-56h-55v-57h-53v-55h51h57v-53h54v108v4v53h55v56h-55v55h57v-55h55v-56h56v-55h55v55h111v-41v-14h112v-57h55v-53h54v53h-54 v112h56v-112h55v57h55v55h56v-57h-56v-55h9h47v-109h-58v53h-110v-53h55v-57h-55v-55h55v55h57v-55h-55v-54h-166v54h53v165h-55v56h-53v-111h-31h-26v-55h-56v55h-55v-51h-35h-20h-56v-59h170v-107h-114v-57h-56v-56h109v58h59v55h162h37h20v-55h56v55h57v-113h55v-55h-55 v-53h-57v53h-56v-55h60v-55h-60v-56h-55v-55h166v55h55v56h-53v57h53h45h13v-113h-56v-55h56v-25v-32v-54h-56v54h-57v-54h-109v-55h-16h-39h-112v55h-56v-57h-57v57h57v56h56v-56h110v111h-55v55h-55v-55h-56v55h-24h-197v-110h-55v-56h-111v-57h-14h-43h-55v57h-52v-57 h-55v57h55v54h-55v55h-57h-13h-43v168h56v-111h57v56v55h55v-55h52v55h59v-55h53v-56h55v111h-55v110h-53v56h272v57v53h-108v113h-2v51h-54v-162h-57v107h-55v-107h55v-57h-162v57h52v107h-109v57h109v56h-54v53h-53v-109h-57v56h-56v-113h-53v-55h53v-54h56v54h57v-54h-57 v-110h55v55h57v-55h56v-56v-57h-111v-53h-57v53h-56v2v111h-55v-56h-57v56h-53v-56h-56v56h-53v-56h-57v220h-56h-22h-35zM2 2v389h389v-389h-389zM2 1055v55h55v57h56v-57h-56v-55h-55zM2 1221v389h389v-389h-389zM57 57h279v279h-279v-279zM57 725h113v-27v-32v-54h53v54 h56v110h-31h-25h-55v58h55v110h-55v-57h-57v-109h-54v-53zM57 889h54v55h-54v-55zM57 1276h279v278h-279v-278zM115 113v166h164v-166h-164zM115 1333v164h164v-164h-164zM168 1110v57h223v-57h-55v-55h166v53h-58v168h58v-166h55v166h55v-55h56v-113h-56v-53h52v-56h-330 v56h-55v55h-111zM223 559h109v53h-45h-64v-53zM279 778h55v56h-55v-56zM334 502h55v55h-55v-55zM334 614h55v52h-55v-52zM334 721h55v55h-55v-55zM389 557v55h55v-55h-55zM444 59v56h56v-56h-56zM446 1331v55v3v53h58v-53h160v-58h-218zM446 1497v57h56v56h55v-56h55v-79 v-33h-108v57h53v53h-53v-55h-58zM557 170h55v-55h52v55h59v-55h39h14v108h-53v58h-55v-56h-111v-55zM557 446v56h55v-56h-55zM612 1552v58h111v-56h53v-55h55v-57v-53h54v-58h59v-31v-24v-55h-57v55h-56v-111h-55v-57h-57v113h-51v55v37v18h55v58h51v53h-51v55h-55v55h-56z M664 721h55v55h-55v-55zM664 834h55v53h-55v-53zM668 59h51v54h-51v-54zM719 778h55v53h-55v-53zM725 1221h51v55h-51v-55zM776 1331h53v55h-53v-55zM831 115h54v110h-54v-110zM831 557v57h56v-57h-56zM831 1497v57h54v56h57v-56h55v56h56v-58h-56v-55h-57v55h-53v-55h-56z M885 391h112v55h-112v-55zM887 778h55v56h-37h-18v-56zM942 889h55v-39v-16v-56h56v23v33h110h56v53h-31h-25v55h-55v-55h-55v55h-111v-53zM944 1386v56h53v55h56v57h57v56h55v-58h-55v-55h-55v-55h108v-103v-8v-110h-57v110h-53v111h-54v-56h-55zM997 113v57h56v-57h-56z M997 1055v110h111v-110h-111zM997 1221v55h56v-55h-56zM1163 281h164v165h-164v-165zM1165 1108v57h109v-55h55v55h111v-55h57v55h55v-75v-35h-55v-56h-57v56h-111v-56h-110v56h55v53h-109zM1219 336v57h55v-57h-55zM1221 1221v389h389v-389h-389zM1276 1276h278v278h-278 v-278zM1331 1333v164h166v-164h-166zM1550 557v57h58v-57h-58z" />
<glyph unicode="&#xab;" horiz-adv-x="590" d="M0 695l67 543h190l-68 -543l68 -571h-190zM293 695l68 543h189l-68 -543l68 -571h-189z" />
<glyph unicode="&#xad;" horiz-adv-x="810" d="M0 695v244h770v-244h-770z" />
<glyph unicode="&#xae;" horiz-adv-x="1265" d="M0 766q0 202 82 384q90 202 250 297q142 85 265 85q287 0 466 -246q162 -222 162 -520q0 -288 -158 -514q-177 -252 -454 -252q-279 0 -455 251q-158 225 -158 515zM121 766q0 -232 128 -413q142 -203 365 -203t365 203q127 181 127 413q0 161 -64 305q-70 158 -195 239 q-115 73 -220 73q-232 0 -376 -198q-130 -178 -130 -419zM343 357v813h308q218 0 218 -230q0 -188 -175 -228q48 -23 85 -83q13 -22 54 -109l76 -163h-163l-54 131q-40 98 -64 132q-49 70 -119 70h-35v-333h-131zM474 819h107q149 0 149 113q0 108 -135 108h-121v-221z" />
<glyph unicode="&#xb4;" horiz-adv-x="465" d="M0 1501l141 271h284l-263 -271h-162z" />
<glyph unicode="&#xb7;" horiz-adv-x="275" d="M0 698q0 55 30 98q34 48 87 48t87 -48q31 -43 31 -98q0 -56 -30 -99q-34 -48 -88 -48q-53 0 -87 48q-30 44 -30 99z" />
<glyph unicode="&#xb8;" horiz-adv-x="368" d="M0 -274h119q11 -41 40 -41q47 0 47 60q0 66 -66 66q-8 0 -21 -1v202h93v-124q51 0 85 -41q31 -39 31 -91q0 -73 -47 -129q-49 -59 -121 -59q-125 0 -160 158z" />
<glyph unicode="&#xbb;" horiz-adv-x="590" d="M0 124l67 571l-67 543h189l68 -543l-68 -571h-189zM293 124l68 571l-68 543h189l68 -543l-68 -571h-189z" />
<glyph unicode="&#xc0;" d="M30 0l171 1603h486l168 -1411l57 -462q-29 59 -64.5 108.5t-76.5 85.5t-88 57.5t-99 24.5q-12 0 -23 -1t-21 -3l-4 -2l-18 284h-121l-20 -284h-347zM183 1907h225l111 -211h-128zM394 570h114q-12 142 -24.5 309t-26.5 370q-26 -233 -63 -679z" />
<glyph unicode="&#xc1;" d="M30 0l171 1603h486l168 -1411l57 -462q-29 59 -64.5 108.5t-76.5 85.5t-88 57.5t-99 24.5q-12 0 -23 -1t-21 -3l-4 -2l-18 284h-121l-20 -284h-347zM376 1696l112 211h227l-210 -211h-129zM394 570h114q-12 142 -24.5 309t-26.5 370q-26 -233 -63 -679z" />
<glyph unicode="&#xc2;" d="M30 0l171 1603h486l168 -1411l57 -462q-29 59 -64.5 108.5t-76.5 85.5t-88 57.5t-99 24.5q-12 0 -23 -1t-21 -3l-4 -2l-18 284h-121l-20 -284h-347zM192 1659l164 226h181l155 -226h-174l-71 105l-75 -105h-180zM394 570h114q-12 142 -24.5 309t-26.5 370 q-26 -233 -63 -679z" />
<glyph unicode="&#xc3;" d="M30 0l171 1603h486l168 -1411l57 -462q-29 59 -64.5 108.5t-76.5 85.5t-88 57.5t-99 24.5q-12 0 -23 -1t-21 -3l-4 -2l-18 284h-121l-20 -284h-347zM168 1746q71 155 159 155q22 -1 47 -7t53 -19l40 -18q51 -23 68 -23q52 0 70 72l103 -92q-52 -145 -148 -145 q-44 0 -98 26l-47 23q-48 24 -68 24q-48 0 -78 -80zM394 570h114q-12 142 -24.5 309t-26.5 370q-26 -233 -63 -679z" />
<glyph unicode="&#xc7;" horiz-adv-x="820" d="M0 563v464q0 103 4 175t12 114q30 157 126.5 232.5t251.5 75.5q69 0 128.5 -21.5t106 -57.5t78 -82.5t45.5 -95.5q14 -52 21 -138.5t7 -211.5v15h-330v122v83.5t-1 34.5q-11 84 -59 84q-18 0 -30 -6.5t-18.5 -26.5t-9 -57t-2.5 -97v-736q0 -52 0.5 -81t1.5 -35 q10 -78 61 -78q28 0 38 15.5t12 60.5q6 102 6 191v22q64 0 118 20.5t96.5 58.5t72 93.5t44.5 124.5v-319v-194q-12 -52 -26 -93.5t-33.5 -75.5t-46 -61t-63.5 -50q-98 -61 -227 -61q-83 0 -149 25.5t-113.5 70.5t-76 106t-35.5 133q-5 54 -7.5 117.5t-2.5 139.5zM263 -221 h95q9 -33 32 -33q38 0 38 48q0 53 -53 53q-7 0 -17 -1v162h74v-100q41 0 68 -32q25 -32 25 -73q0 -59 -37 -103q-40 -48 -97 -48q-100 0 -128 127z" />
<glyph unicode="&#xc8;" horiz-adv-x="755" d="M0 1v1602h715v-322h-378v-293h348q-245 -131 -245 -307l-103 1v-356h378v-325h-715zM113 1907h225l111 -211h-128z" />
<glyph unicode="&#xc9;" horiz-adv-x="755" d="M0 1v1602h715v-322h-378v-293h348q-245 -131 -245 -307l-103 1v-356h378v-325h-715zM296 1696l112 211h227l-210 -211h-129z" />
<glyph unicode="&#xca;" horiz-adv-x="755" d="M0 1v1602h715v-322h-378v-293h348q-245 -131 -245 -307l-103 1v-356h378v-325h-715zM92 1659l164 226h181l155 -226h-174l-71 105l-75 -105h-180z" />
<glyph unicode="&#xcc;" horiz-adv-x="377" d="M-10 1907h222l110 -211h-127zM0 0v1603q119 -6 337 -3v-1600h-337z" />
<glyph unicode="&#xcd;" horiz-adv-x="377" d="M0 0v1603q119 -6 337 -3v-1600h-337zM36 1696l112 211h227l-210 -211h-129z" />
<glyph unicode="&#xd2;" horiz-adv-x="819" d="M0 671v277q0 126 0.5 193t1.5 79q7 112 36.5 193.5t79 135t118 79t154.5 25.5q84 0 152.5 -25.5t118 -78t79.5 -134t37 -193.5q1 -13 1.5 -80.5t0.5 -193.5v-277q0 -126 -0.5 -193t-1.5 -79q-7 -113 -36.5 -195t-79 -135t-118 -78t-153.5 -25t-153.5 25.5t-118.5 78.5 t-79.5 134.5t-36.5 192.5q-1 13 -1.5 80.5t-0.5 193.5zM103 1907h225l111 -211h-128zM336 326q8 -86 53 -86t53 95v124v744q0 54 -2 88t-7.5 53.5t-15.5 27t-26 7.5q-17 0 -27.5 -7.5t-16.5 -27t-8 -54t-2 -87.5v-756q0 -121 -1 -121z" />
<glyph unicode="&#xd3;" horiz-adv-x="819" d="M0 671v277q0 126 0.5 193t1.5 79q7 112 36.5 193.5t79 135t118 79t154.5 25.5q84 0 152.5 -25.5t118 -78t79.5 -134t37 -193.5q1 -13 1.5 -80.5t0.5 -193.5v-277q0 -126 -0.5 -193t-1.5 -79q-7 -113 -36.5 -195t-79 -135t-118 -78t-153.5 -25t-153.5 25.5t-118.5 78.5 t-79.5 134.5t-36.5 192.5q-1 13 -1.5 80.5t-0.5 193.5zM296 1696l112 211h227l-210 -211h-129zM336 326q8 -86 53 -86t53 95v124v744q0 54 -2 88t-7.5 53.5t-15.5 27t-26 7.5q-17 0 -27.5 -7.5t-16.5 -27t-8 -54t-2 -87.5v-756q0 -121 -1 -121z" />
<glyph unicode="&#xe0;" d="M30 0l171 1603h486l168 -1411l57 -462q-29 59 -64.5 108.5t-76.5 85.5t-88 57.5t-99 24.5q-12 0 -23 -1t-21 -3l-4 -2l-18 284h-121l-20 -284h-347zM183 1907h225l111 -211h-128zM394 570h114q-12 142 -24.5 309t-26.5 370q-26 -233 -63 -679z" />
<glyph unicode="&#xe1;" d="M30 0l171 1603h486l168 -1411l57 -462q-29 59 -64.5 108.5t-76.5 85.5t-88 57.5t-99 24.5q-12 0 -23 -1t-21 -3l-4 -2l-18 284h-121l-20 -284h-347zM376 1696l112 211h227l-210 -211h-129zM394 570h114q-12 142 -24.5 309t-26.5 370q-26 -233 -63 -679z" />
<glyph unicode="&#xe2;" d="M30 0l171 1603h486l168 -1411l57 -462q-29 59 -64.5 108.5t-76.5 85.5t-88 57.5t-99 24.5q-12 0 -23 -1t-21 -3l-4 -2l-18 284h-121l-20 -284h-347zM192 1659l164 226h181l155 -226h-174l-71 105l-75 -105h-180zM394 570h114q-12 142 -24.5 309t-26.5 370 q-26 -233 -63 -679z" />
<glyph unicode="&#xe3;" d="M30 0l171 1603h486l168 -1411l57 -462q-29 59 -64.5 108.5t-76.5 85.5t-88 57.5t-99 24.5q-12 0 -23 -1t-21 -3l-4 -2l-18 284h-121l-20 -284h-347zM168 1746q71 155 159 155q22 -1 47 -7t53 -19l40 -18q51 -23 68 -23q52 0 70 72l103 -92q-52 -145 -148 -145 q-44 0 -98 26l-47 23q-48 24 -68 24q-48 0 -78 -80zM394 570h114q-12 142 -24.5 309t-26.5 370q-26 -233 -63 -679z" />
<glyph unicode="&#xe7;" horiz-adv-x="820" d="M0 563v464q0 103 4 175t12 114q30 157 126.5 232.5t251.5 75.5q69 0 128.5 -21.5t106 -57.5t78 -82.5t45.5 -95.5q14 -52 21 -138.5t7 -211.5v15h-330v122v83.5t-1 34.5q-11 84 -59 84q-18 0 -30 -6.5t-18.5 -26.5t-9 -57t-2.5 -97v-736q0 -52 0.5 -81t1.5 -35 q10 -78 61 -78q28 0 38 15.5t12 60.5q6 102 6 191v22q64 0 118 20.5t96.5 58.5t72 93.5t44.5 124.5v-319v-194q-12 -52 -26 -93.5t-33.5 -75.5t-46 -61t-63.5 -50q-98 -61 -227 -61q-83 0 -149 25.5t-113.5 70.5t-76 106t-35.5 133q-5 54 -7.5 117.5t-2.5 139.5zM263 -221 h95q9 -33 32 -33q38 0 38 48q0 53 -53 53q-7 0 -17 -1v162h74v-100q41 0 68 -32q25 -32 25 -73q0 -59 -37 -103q-40 -48 -97 -48q-100 0 -128 127z" />
<glyph unicode="&#xe8;" horiz-adv-x="755" d="M0 1v1602h715v-322h-378v-293h348q-245 -131 -245 -307l-103 1v-356h378v-325h-715zM113 1907h225l111 -211h-128z" />
<glyph unicode="&#xe9;" horiz-adv-x="755" d="M0 1v1602h715v-322h-378v-293h348q-245 -131 -245 -307l-103 1v-356h378v-325h-715zM296 1696l112 211h227l-210 -211h-129z" />
<glyph unicode="&#xea;" horiz-adv-x="755" d="M0 1v1602h715v-322h-378v-293h348q-245 -131 -245 -307l-103 1v-356h378v-325h-715zM92 1659l164 226h181l155 -226h-174l-71 105l-75 -105h-180z" />
<glyph unicode="&#xf2;" horiz-adv-x="819" d="M0 671v277q0 126 0.5 193t1.5 79q7 112 36.5 193.5t79 135t118 79t154.5 25.5q84 0 152.5 -25.5t118 -78t79.5 -134t37 -193.5q1 -13 1.5 -80.5t0.5 -193.5v-277q0 -126 -0.5 -193t-1.5 -79q-7 -113 -36.5 -195t-79 -135t-118 -78t-153.5 -25t-153.5 25.5t-118.5 78.5 t-79.5 134.5t-36.5 192.5q-1 13 -1.5 80.5t-0.5 193.5zM103 1907h225l111 -211h-128zM336 326q8 -86 53 -86t53 95v124v744q0 54 -2 88t-7.5 53.5t-15.5 27t-26 7.5q-17 0 -27.5 -7.5t-16.5 -27t-8 -54t-2 -87.5v-756q0 -121 -1 -121z" />
<glyph unicode="&#xf3;" horiz-adv-x="819" d="M0 671v277q0 126 0.5 193t1.5 79q7 112 36.5 193.5t79 135t118 79t154.5 25.5q84 0 152.5 -25.5t118 -78t79.5 -134t37 -193.5q1 -13 1.5 -80.5t0.5 -193.5v-277q0 -126 -0.5 -193t-1.5 -79q-7 -113 -36.5 -195t-79 -135t-118 -78t-153.5 -25t-153.5 25.5t-118.5 78.5 t-79.5 134.5t-36.5 192.5q-1 13 -1.5 80.5t-0.5 193.5zM296 1696l112 211h227l-210 -211h-129zM336 326q8 -86 53 -86t53 95v124v744q0 54 -2 88t-7.5 53.5t-15.5 27t-26 7.5q-17 0 -27.5 -7.5t-16.5 -27t-8 -54t-2 -87.5v-756q0 -121 -1 -121z" />
<glyph unicode="&#xf4;" horiz-adv-x="819" d="M0 671v277q0 126 0.5 193t1.5 79q7 112 36.5 193.5t79 135t118 79t154.5 25.5q84 0 152.5 -25.5t118 -78t79.5 -134t37 -193.5q1 -13 1.5 -80.5t0.5 -193.5v-277q0 -126 -0.5 -193t-1.5 -79q-7 -113 -36.5 -195t-79 -135t-118 -78t-153.5 -25t-153.5 25.5t-118.5 78.5 t-79.5 134.5t-36.5 192.5q-1 13 -1.5 80.5t-0.5 193.5zM296 1696l112 211h227l-210 -211h-129zM336 326q8 -86 53 -86t53 95v124v744q0 54 -2 88t-7.5 53.5t-15.5 27t-26 7.5q-17 0 -27.5 -7.5t-16.5 -27t-8 -54t-2 -87.5v-756q0 -121 -1 -121z" />
<glyph unicode="&#xf9;" horiz-adv-x="814" d="M0 654v943h338v-1200q0 -54 2 -86.5t7 -50.5t14.5 -23.5t24.5 -5.5t24.5 4t15 22.5t7.5 56t2 104.5v1179q51 0 100 22t93.5 65.5t81.5 107t64 146.5v-1408q0 -96 -1 -157t-7.5 -104.5t-20 -77.5t-37.5 -74q-98 -161 -309 -161q-80 0 -148 22.5t-119.5 65t-83.5 105.5 t-40 144q-4 42 -6 130.5t-2 230.5zM296 1696l112 211h227l-210 -211h-129z" />
<glyph unicode="&#xfa;" horiz-adv-x="814" d="M0 654v943h338v-1200q0 -54 2 -86.5t7 -50.5t14.5 -23.5t24.5 -5.5t24.5 4t15 22.5t7.5 56t2 104.5v1179q51 0 100 22t93.5 65.5t81.5 107t64 146.5v-1408q0 -96 -1 -157t-7.5 -104.5t-20 -77.5t-37.5 -74q-98 -161 -309 -161q-80 0 -148 22.5t-119.5 65t-83.5 105.5 t-40 144q-4 42 -6 130.5t-2 230.5zM133 1907h225l111 -211h-128z" />
<glyph unicode="&#xfb;" horiz-adv-x="814" d="M0 654v943h338v-1200q0 -54 2 -86.5t7 -50.5t14.5 -23.5t24.5 -5.5t24.5 4t15 22.5t7.5 56t2 104.5v1179q51 0 154.5 0.5t184.5 -2.5v-1065q0 -96 -1 -157t-7.5 -104.5t-20 -77.5t-37.5 -74q-98 -161 -309 -161q-80 0 -148 22.5t-119.5 65t-83.5 105.5t-40 144 q-4 42 -6 130.5t-2 230.5zM152 1659l164 226h181l155 -226h-174l-71 105l-75 -105h-180z" />
<glyph unicode="&#x2c6;" horiz-adv-x="664" d="M0 1501l205 282h226l193 -282h-217l-89 131l-94 -131h-224z" />
<glyph unicode="&#x2dc;" horiz-adv-x="715" d="M0 1606q89 194 199 194q28 -1 59 -8.5t66 -23.5l50 -23q64 -29 85 -29q65 0 88 90l128 -115q-64 -181 -184 -181q-56 0 -123 33l-59 29q-60 29 -85 29q-60 0 -97 -100z" />
<glyph unicode="&#x2000;" horiz-adv-x="1027" />
<glyph unicode="&#x2001;" horiz-adv-x="2054" />
<glyph unicode="&#x2002;" horiz-adv-x="1027" />
<glyph unicode="&#x2003;" horiz-adv-x="2054" />
<glyph unicode="&#x2004;" horiz-adv-x="684" />
<glyph unicode="&#x2005;" horiz-adv-x="513" />
<glyph unicode="&#x2006;" horiz-adv-x="342" />
<glyph unicode="&#x2007;" horiz-adv-x="342" />
<glyph unicode="&#x2008;" horiz-adv-x="256" />
<glyph unicode="&#x2009;" horiz-adv-x="410" />
<glyph unicode="&#x200a;" horiz-adv-x="114" />
<glyph unicode="&#x2010;" horiz-adv-x="810" d="M0 695v244h770v-244h-770z" />
<glyph unicode="&#x2011;" horiz-adv-x="810" d="M0 695v244h770v-244h-770z" />
<glyph unicode="&#x2012;" horiz-adv-x="810" d="M0 695v244h770v-244h-770z" />
<glyph unicode="&#x2013;" d="M0 539v249h839v-249h-839z" />
<glyph unicode="&#x2014;" horiz-adv-x="1698" d="M0 539v249h1658v-249h-1658z" />
<glyph unicode="&#x2018;" horiz-adv-x="257" d="M0 1095v145q0 168 57.5 261t159.5 118v-116q-48 -35 -54 -91h54v-317h-217z" />
<glyph unicode="&#x2019;" horiz-adv-x="257" d="M0 1095v117q48 33 54 90h-54v317h217v-145q0 -168 -58 -260t-159 -119z" />
<glyph unicode="&#x201a;" horiz-adv-x="257" d="M0 0v317h217v-145q0 -168 -57.5 -261t-159.5 -118v116q48 35 54 91h-54z" />
<glyph unicode="&#x201c;" horiz-adv-x="546" d="M0 1095v145q0 168 57.5 261t159.5 118v-116q-48 -35 -54 -91h54v-317h-217zM289 1095v145q0 168 57.5 261t159.5 118v-116q-47 -35 -53 -91h53v-317h-217z" />
<glyph unicode="&#x201d;" horiz-adv-x="546" d="M0 1095v117q48 33 54 90h-54v317h217v-145q0 -168 -58 -260t-159 -119zM289 1095v117q48 33 54 90h-54v317h217v-145q0 -85 -15 -149.5t-42.5 -111t-68 -76t-91.5 -42.5z" />
<glyph unicode="&#x201e;" horiz-adv-x="546" d="M0 0v317h217v-145q0 -168 -57.5 -261t-159.5 -118v116q48 35 54 91h-54zM289 0v317h217v-145q0 -85 -15 -150.5t-43 -112t-68 -75.5t-91 -41v116q48 35 54 91h-54z" />
<glyph unicode="&#x2022;" horiz-adv-x="948" d="M0 768v25q0 12 4 16q0 -22 19 -22q11 32 21.5 49t21.5 30l26 30q-33 -95 -33 -196q0 -68 27.5 -130t69.5 -105l23 -19q-33 19 -65.5 48t-57.5 68.5t-40.5 91t-15.5 114.5zM117 729q5 77 28.5 144.5t63 123.5t93 100.5t117.5 75.5q-23 -14 -40 -37.5t-17 -55.5v-5 q0 -6 1 -9l2 -10q8 -41 36 -41v-345q7 -33 40 -33q11 0 22.5 4t21.5 10t18 13t11 13v305q-8 37 -42 57q2 0 5 1q6 2 11 2q23 0 40 -21q18 27 41 47.5t48.5 35.5t52 24.5t51.5 15.5q-14 -6 -59 -51l-12 -20q-24 -39 -28 -76v-323q6 -13 11.5 -14.5t12.5 -1.5q36 0 102 81 q-4 -17 -14.5 -41t-29.5 -52t-47 -59.5t-67 -63.5l-31 20q-15 10 -32 45q-11 -16 -28 -35t-48 -50q-14 2 -42.5 8.5t-60 19.5t-59.5 33t-42 49q3 -5 17 -5q20 0 28 29v268q0 34 -26 34q-11 0 -28 -10.5t-37.5 -35.5t-42.5 -65t-41 -99zM721 1201q69 -39 107 -91t55.5 -102 t21 -89.5t3.5 -52.5v-12q-1 -3 -1 -7v-9q-2 6 -6 11t-7 9q-4 4 -8 9q-13 -31 -29.5 -60t-38.5 -56q5 15 16.5 58t11.5 113q0 48 -8 85t-19.5 64.5t-24 46.5t-22.5 31q-9 11 -16.5 19t-12.5 13z" />
<glyph unicode="&#x2026;" horiz-adv-x="889" d="M0 0v330h244v-330h-244zM302 0v330h244v-330h-244zM605 0v330h244v-330h-244z" />
<glyph unicode="&#x202f;" horiz-adv-x="410" />
<glyph unicode="&#x2039;" horiz-adv-x="305" d="M0 696l69 561h196l-69 -561l69 -592h-196z" />
<glyph unicode="&#x203a;" horiz-adv-x="305" d="M0 104l69 592l-69 561h196l69 -561l-69 -592h-196z" />
<glyph unicode="&#x205f;" horiz-adv-x="513" />
<glyph unicode="&#x20ac;" horiz-adv-x="876" d="M0 612v172h78v80h-78v172h78v29q0 159 6 216q10 93 42 162.5t82.5 116t116.5 70t144 23.5q231 0 320 -198q47 -106 47 -339v-53h-298v131v69.5t-5.5 59t-20 40.5t-42.5 15q-30 0 -46.5 -9.5t-25 -32t-10.5 -60.5t-2 -94v-146h91v-172h-91v-80h91v-172h-91v-182 q0 -60 5.5 -97t15.5 -57.5t24 -28t31 -7.5q25 0 40 8t23 30.5t10.5 62.5t2.5 103v154h298v-63q0 -190 -19 -276q-31 -143 -124 -218.5t-234 -75.5q-161 0 -258 95.5t-117 284.5q-6 60 -6 224v43h-78z" />
<glyph unicode="&#x2122;" horiz-adv-x="720" d="M0 1541v78h292v-78h-108v-373h-73v373h-111zM320 1168v451h114l66 -311l65 311h115v-451h-70v360l-78 -360h-66l-78 360v-360h-68z" />
<glyph unicode="&#x25fc;" horiz-adv-x="1870" d="M0 0v1870h1870v-1870h-1870z" />
</font>
</defs>
</svg>
